<svg width="16" height="16" viewBox="0 0 16 16" fill="none" xmlns="http://www.w3.org/2000/svg">
<g clip-path="url(#clip0_1_10)">
<path d="M13 8C13 8.564 12.906 9.107 12.734 9.613L11.92 8.799C11.9733 8.536 12.0001 8.26833 12 8V7C12 6.86739 12.0527 6.74021 12.1464 6.64644C12.2402 6.55268 12.3674 6.5 12.5 6.5C12.6326 6.5 12.7598 6.55268 12.8536 6.64644C12.9473 6.74021 13 6.86739 13 7V8ZM8 12C8.818 12 9.578 11.755 10.212 11.333L10.93 12.052C10.2162 12.5697 9.37751 12.8882 8.5 12.975V15H11.5C11.6326 15 11.7598 15.0527 11.8536 15.1464C11.9473 15.2402 12 15.3674 12 15.5C12 15.6326 11.9473 15.7598 11.8536 15.8536C11.7598 15.9473 11.6326 16 11.5 16H4.5C4.36739 16 4.24021 15.9473 4.14645 15.8536C4.05268 15.7598 4 15.6326 4 15.5C4 15.3674 4.05268 15.2402 4.14645 15.1464C4.24021 15.0527 4.36739 15 4.5 15H7.5V12.975C6.26668 12.851 5.12338 12.2734 4.29188 11.3541C3.46038 10.4349 2.99998 9.23953 3 8V7C3 6.86739 3.05268 6.74021 3.14645 6.64644C3.24021 6.55268 3.36739 6.5 3.5 6.5C3.63261 6.5 3.75979 6.55268 3.85355 6.64644C3.94732 6.74021 4 6.86739 4 7V8C4 9.06086 4.42143 10.0783 5.17157 10.8284C5.92172 11.5786 6.93913 12 8 12ZM11 3V7.879L10 6.879V3C10.0023 2.47826 9.80064 1.97627 9.43803 1.60113C9.07541 1.22599 8.58056 1.00741 8.05904 0.992013C7.53752 0.976617 7.03063 1.16563 6.64652 1.51872C6.2624 1.87181 6.03147 2.36103 6.003 2.882L5.158 2.037C5.38694 1.36424 5.8472 0.794554 6.45683 0.429363C7.06647 0.0641728 7.78592 -0.0728252 8.4871 0.0427586C9.18829 0.158342 9.8257 0.519007 10.2859 1.06054C10.746 1.60208 10.9991 2.28935 11 3V3Z" fill="black"/>
<path d="M9.486 10.607L8.738 9.859C8.43462 9.97944 8.10637 10.0238 7.7819 9.98821C7.45743 9.95261 7.1466 9.83814 6.87655 9.65479C6.6065 9.47143 6.38543 9.22477 6.23264 8.93632C6.07984 8.64787 5.99997 8.32641 6 8V7.122L5 6.122V8C4.99984 8.52531 5.13763 9.04146 5.39957 9.49681C5.66152 9.95216 6.03844 10.3307 6.49263 10.5947C6.94682 10.8586 7.46236 10.9987 7.98767 11.0009C8.51298 11.003 9.02965 10.8672 9.486 10.607V10.607ZM1.646 1.354L13.646 13.354L14.354 12.646L2.354 0.645996L1.646 1.354V1.354Z" fill="black"/>
</g>
<defs>
<clipPath id="clip0_1_10">
<rect width="16" height="16" fill="white"/>
</clipPath>
</defs>
</svg>
